<?xml version="1.0" encoding="UTF-8"?>
<!DOCTYPE svg PUBLIC "-//W3C//DTD SVG 1.1//EN" "http://www.w3.org/Graphics/SVG/1.1/DTD/svg11.dtd">
<!-- Creator: CorelDRAW 2020 (64-Bit) -->
<svg xmlns="http://www.w3.org/2000/svg" xml:space="preserve" width="6050px" height="3168px" version="1.1" style="shape-rendering:geometricPrecision; text-rendering:geometricPrecision; image-rendering:optimizeQuality; fill-rule:evenodd; clip-rule:evenodd"
viewBox="0 0 6588.07 3449.67"
 xmlns:xlink="http://www.w3.org/1999/xlink"
 xmlns:xodm="http://www.corel.com/coreldraw/odm/2003">
 <defs>
  <style type="text/css">
   <![CDATA[
    .str0 {stroke:#FEFEFE;stroke-width:2.57;stroke-miterlimit:22.9256}
    .fil0 {fill:#FEFEFE}
    .fil1 {fill:#E2B65C}
    .fil2 {fill:#373435;fill-rule:nonzero}
   ]]>
  </style>
 </defs>
 <g id="Слой_x0020_1">
  <metadata id="CorelCorpID_0Corel-Layer"/>
  <g id="_2081377546160">
   <polygon class="fil0 str0" points="1.29,1.29 6586.79,1.29 6586.79,3448.38 1.29,3448.38 "/>
   <path class="fil1 str0" d="M427.58 956.02l886.12 0c67.62,0 122.95,55.33 122.95,122.95l0 532.76c0,67.62 -55.33,122.94 -122.95,122.94l-886.12 0c-67.62,0 -122.94,-55.32 -122.94,-122.94l0 -532.76c0,-67.62 55.32,-122.95 122.94,-122.95z"/>
   <path class="fil2" d="M723.14 1591.81l0 -85.08 -204.87 0 198.75 -309.68 0 -81.68 -301.52 0 0 84.4 195.34 0 -199.43 309.69 0 82.35 311.73 0zm505.86 -476.44l-117.07 254.56 -118.43 -254.56 -94.61 0 0 476.44 95.97 0 0 -268.17 85.08 177.65 63.98 0 83.72 -175.6 0 266.12 95.97 0 0 -476.44 -94.61 0zm620.2 541.78l-49.68 -91.88c41.52,-30.63 62.62,-83.72 62.62,-158.59l0 -107.54c0,-66.7 -15.66,-115.71 -46.97,-145.65 -30.63,-29.95 -72.83,-44.93 -125.91,-44.93 -115.71,0 -174.24,63.98 -174.24,190.58l0 107.54c0,126.6 57.85,190.58 171.51,190.58 10.89,0 21.78,-0.68 32.67,-2.04l55.82 102.77 74.18 -40.84zm-219.16 -170.16c-12.25,-17.01 -18.38,-44.24 -18.38,-81.67l0 -101.42c0,-40.15 6.13,-68.74 18.38,-85.75 12.25,-16.34 31.31,-24.51 59.22,-24.51 26.54,0 45.6,8.85 57.85,25.19 12.93,17.69 19.06,46.28 19.06,85.07l0 101.42c0,36.75 -6.13,63.98 -19.06,80.31 -12.25,17.02 -31.31,25.19 -57.85,25.19 -27.91,0 -46.97,-8.17 -59.22,-23.83zm507.22 88.49c25.87,13.61 55.13,20.42 87.8,20.42 33.35,0 62.62,-6.81 88.48,-20.42 26.55,-13.62 46.97,-33.35 61.94,-57.86 14.98,-24.5 22.46,-52.41 22.46,-84.39l0 -317.86 -96.65 0 0 315.13c0,25.87 -6.8,46.29 -20.42,59.9 -13.61,13.61 -31.99,21.1 -55.81,21.1 -23.82,0 -42.2,-7.49 -55.13,-21.1 -13.61,-14.3 -20.42,-34.03 -20.42,-59.9l0 -315.13 -95.97 0 0 317.86c0,31.98 7.49,59.89 22.46,84.39 14.3,24.51 34.72,44.24 61.26,57.86zm452.09 -276.34l0 107.54c0,126.6 57.85,190.58 171.52,190.58 53.77,0 96.65,-14.98 127.96,-44.92 31.99,-29.95 47.64,-78.96 47.64,-145.66l0 -107.54c0,-66.7 -15.65,-115.71 -46.96,-145.65 -30.63,-29.95 -72.83,-44.93 -125.92,-44.93 -115.71,0 -174.24,63.98 -174.24,190.58zm232.09 186.49c-12.25,17.02 -31.3,25.19 -57.85,25.19 -27.9,0 -46.96,-8.17 -59.21,-23.83 -12.25,-17.01 -18.38,-44.24 -18.38,-81.67l0 -101.42c0,-40.15 6.13,-68.74 18.38,-85.75 12.25,-16.34 31.31,-24.51 59.21,-24.51 26.55,0 45.6,8.85 57.85,25.19 12.94,17.69 19.06,46.28 19.06,85.07l0 101.42c0,36.75 -6.12,63.98 -19.06,80.31zm466.39 -285.86l119.79 0 0 -84.4 -336.23 0 0 84.4 119.79 0 0 392.04 96.65 0 0 -392.04zm377.22 109.58l0 -109.58 208.95 0 0 -84.4 -304.92 0 0 476.44 304.92 0 0 -84.4 -208.95 0 0 -113.66 178.32 0 0 -84.4 -178.32 0zm415.33 247.75c28.59,25.86 68.07,38.8 119.79,38.8 52.41,0 93.93,-12.94 124.56,-38.12 30.63,-25.86 46.28,-63.3 46.28,-110.94 0,-75.55 -41.52,-120.47 -123.87,-135.45l-49.69 -8.85c-21.1,-4.08 -37.43,-10.21 -47.64,-19.73 -9.53,-8.85 -14.3,-20.42 -14.3,-36.08 0,-17.69 5.45,-31.31 16.34,-41.52 11.57,-10.21 28.59,-14.97 50.37,-14.97 21.77,0 38.11,4.76 49.68,14.97 10.89,10.21 17.7,26.55 18.38,50.37l92.56 0c-2.72,-47.64 -19.05,-83.72 -46.96,-109.58 -27.91,-24.5 -64.66,-37.44 -112.3,-37.44 -49.01,0 -87.8,12.94 -117.07,38.8 -29.27,26.54 -44.24,61.94 -44.24,106.18 0,74.87 43.56,119.79 130,134.08l44.24 7.49c21.1,3.4 36.07,9.53 46.28,19.06 8.85,8.84 13.61,22.46 13.61,40.15 0,39.48 -23.82,58.54 -72.14,58.54 -25.19,0 -44.24,-4.77 -57.18,-14.97 -12.93,-10.9 -21.1,-29.27 -24.5,-55.82l-90.52 0c2.72,50.37 18.37,88.49 48.32,115.03zm558.95 -68.74l-101.41 0 0 103.45 101.41 0 0 -103.45zm177.12 -189.22l0 107.54c0,126.6 58.53,190.58 174.24,190.58 53.09,0 95.29,-13.62 125.23,-41.52 31.31,-27.91 46.28,-67.38 46.28,-118.43l0 -8.17 -94.6 0 0 8.85c0,23.14 -6.81,40.84 -19.06,53.09 -12.93,12.93 -31.31,19.74 -55.81,19.74 -27.91,0 -47.65,-8.17 -60.58,-24.51 -12.93,-17.01 -19.06,-43.56 -19.06,-80.99l0 -101.42c0,-39.47 6.13,-68.06 19.06,-85.07 11.57,-16.34 31.31,-25.19 59.22,-25.19 24.5,0 43.56,6.81 56.49,20.42 12.93,12.93 19.74,31.31 19.74,54.45l0 7.49 95.97 0 0 -8.17c0,-50.36 -15.66,-89.84 -46.97,-117.75 -30.62,-27.22 -72.14,-41.52 -124.55,-41.52 -116.39,0 -175.6,63.98 -175.6,190.58zm532.4 0l0 107.54c0,126.6 57.85,190.58 171.52,190.58 53.77,0 96.65,-14.98 127.96,-44.92 31.99,-29.95 47.64,-78.96 47.64,-145.66l0 -107.54c0,-66.7 -15.65,-115.71 -46.96,-145.65 -30.63,-29.95 -72.83,-44.93 -125.92,-44.93 -115.71,0 -174.24,63.98 -174.24,190.58zm232.09 186.49c-12.25,17.02 -31.31,25.19 -57.85,25.19 -27.91,0 -46.96,-8.17 -59.22,-23.83 -12.25,-17.01 -18.37,-44.24 -18.37,-81.67l0 -101.42c0,-40.15 6.12,-68.74 18.37,-85.75 12.26,-16.34 31.31,-24.51 59.22,-24.51 26.54,0 45.6,8.85 57.85,25.19 12.94,17.69 19.06,46.28 19.06,85.07l0 101.42c0,36.75 -6.12,63.98 -19.06,80.31zm629.74 -370.26l-117.07 254.56 -118.43 -254.56 -94.61 0 0 476.44 95.97 0 0 -268.17 85.08 177.65 63.98 0 83.72 -175.6 0 266.12 95.96 0 0 -476.44 -94.6 0z"/>
   <g>
    <path class="fil2" d="M1891.27 2454.9l-34.53 0 -74.45 210.17 44.73 0 12.61 -40.24 68.75 0 12.61 40.24 45.04 0 -74.76 -210.17zm-40.23 134.21l22.82 -72.96 23.11 72.96 -45.93 0zm129.1 -83.17l0 94.58c0,44.13 21.31,66.35 63.35,66.35 21.01,0 36.92,-5.41 47.73,-16.82 10.21,-10.8 15.61,-27.32 15.61,-49.53l0 -94.58 -40.23 0 0 92.77c0,11.11 -1.5,19.52 -4.8,24.62 -3,5.11 -9.01,7.51 -18.31,7.51 -9.31,0 -15.31,-2.7 -18.32,-7.81 -3.3,-5.4 -4.8,-13.81 -4.8,-24.32l0 -92.77 -40.23 0zm207.46 110.19l0 -81.06 30.02 0 0 -29.13 -30.02 0 0 -44.13 -39.93 13.81 0 30.32 -21.62 0 0 29.13 21.62 0 0 83.46c0,14.11 4.2,25.52 12.91,33.92 8.4,8.41 20.11,12.62 34.82,12.62l19.22 0 0 -34.53 -13.21 0c-9.31,0 -13.81,-4.5 -13.81,-14.41zm91.57 -161.23l-40.23 0 0 210.17 40.23 0 0 -98.78c0,-8.41 2.4,-15.01 6.6,-19.52 4.51,-4.2 9.91,-6.6 16.81,-6.6 7.21,0 12.61,2.4 16.52,6.6 4.2,4.51 6.3,11.11 6.3,19.52l0 98.78 40.23 0 0 -103.28c0,-18.02 -4.5,-32.13 -13.51,-42.34 -9.3,-10.2 -22.21,-15.31 -38.43,-15.31 -6.9,0 -13.81,1.2 -20.41,3.9 -5.11,2.41 -9.91,5.41 -14.11,9.61l0 -62.75zm130.6 195.75c11.41,10.81 27.32,16.22 47.43,16.22 19.82,0 35.43,-5.41 46.84,-16.22 11.71,-11.11 17.41,-27.92 17.41,-50.74l0 -29.12c0,-22.51 -5.7,-39.33 -17.41,-50.44 -11.41,-10.8 -27.02,-16.21 -46.84,-16.21 -20.11,0 -36.02,5.41 -47.43,16.21 -11.71,11.11 -17.42,27.93 -17.42,50.44l0 29.12c0,22.82 5.71,39.63 17.42,50.74zm71.75 -79.26l0 28.23c0,21.01 -8.1,31.22 -24.32,31.22 -16.81,0 -24.92,-10.21 -24.92,-31.22l0 -28.23c0,-21.01 8.11,-31.22 24.92,-31.22 16.22,0 24.32,10.21 24.32,31.22zm141.41 -68.75c-8.4,0 -15.61,1.8 -22.22,5.1 -5.1,2.71 -9.6,6.01 -13.21,11.11l0 -12.91 -39.33 0 0 159.13 40.24 0 0 -95.18c0,-10.21 2.7,-18.01 7.8,-23.42 5.11,-5.4 12.01,-8.1 20.72,-8.1 5.4,0 12.31,1.2 20.11,3.9l0 -38.13c-4.5,-0.9 -9.3,-1.5 -14.11,-1.5zm44.14 150.72c11.1,9 25.52,13.51 43.83,13.51 18.91,0 34.53,-4.51 46.23,-13.21 12.01,-9.31 18.02,-22.22 18.02,-38.43 0,-13.21 -3.9,-24.02 -12.31,-31.83 -7.81,-7.5 -19.82,-12.31 -35.73,-14.71l-18.31 -2.7c-6.61,-0.9 -11.71,-2.7 -14.41,-5.1 -2.71,-2.11 -4.21,-5.41 -4.21,-9.61 0,-4.51 1.8,-8.11 5.41,-10.81 3.9,-2.7 9.3,-4.2 16.51,-4.2 7.21,0 12.91,1.5 17.11,4.2 3.61,2.7 5.71,6.3 5.71,11.41l0 2.4 37.53 0 0 -3.3c0,-9.01 -2.71,-17.12 -7.51,-24.02 -5.1,-7.21 -12.31,-12.91 -21.32,-16.81 -9.3,-4.21 -19.81,-6.01 -31.52,-6.01 -17.41,0 -31.82,4.51 -42.93,13.51 -11.11,9.01 -16.82,21.32 -16.82,36.33 0,13.21 3.91,23.72 11.71,31.22 7.51,7.21 19.22,12.01 35.13,14.71l16.51 2.71c7.81,1.2 13.21,3 16.52,5.4 3,2.4 4.5,5.41 4.5,9.91 0,5.4 -2.1,9.31 -6.31,11.71 -4.2,3 -10.5,4.2 -18.31,4.2 -7.21,0 -13.21,-1.5 -17.71,-4.8 -4.21,-3 -6.31,-6.91 -6.31,-12.31l0 -2.1 -37.83 0 0 2.7c0,15.01 5.41,27.02 16.82,36.03zm206.55 0c11.11,9 25.52,13.51 43.84,13.51 18.91,0 34.53,-4.51 46.23,-13.21 12.01,-9.31 18.02,-22.22 18.02,-38.43 0,-13.21 -3.9,-24.02 -12.31,-31.83 -7.81,-7.5 -19.82,-12.31 -35.73,-14.71l-18.31 -2.7c-6.61,-0.9 -11.71,-2.7 -14.41,-5.1 -2.71,-2.11 -4.21,-5.41 -4.21,-9.61 0,-4.51 1.8,-8.11 5.41,-10.81 3.9,-2.7 9.3,-4.2 16.51,-4.2 7.21,0 12.91,1.5 17.11,4.2 3.61,2.7 5.71,6.3 5.71,11.41l0 2.4 37.53 0 0 -3.3c0,-9.01 -2.71,-17.12 -7.51,-24.02 -5.1,-7.21 -12.31,-12.91 -21.32,-16.81 -9.3,-4.21 -19.81,-6.01 -31.52,-6.01 -17.41,0 -31.82,4.51 -42.93,13.51 -11.11,9.01 -16.82,21.32 -16.82,36.33 0,13.21 3.91,23.72 11.71,31.22 7.51,7.21 19.22,12.01 35.13,14.71l16.51 2.71c7.81,1.2 13.21,3 16.51,5.4 3.01,2.4 4.51,5.41 4.51,9.91 0,5.4 -2.1,9.31 -6.31,11.71 -4.2,3 -10.5,4.2 -18.31,4.2 -7.21,0 -13.21,-1.5 -17.71,-4.8 -4.21,-3 -6.31,-6.91 -6.31,-12.31l0 -2.1 -37.83 0 0 2.7c0,15.01 5.41,27.02 16.81,36.03zm172.64 -198.46l-40.83 0 0 32.73 40.83 0 0 -32.73zm-0.3 51.04l-39.93 0 0 159.13 39.93 0 0 -159.13zm82.26 110.19l0 -81.06 30.02 0 0 -29.13 -30.02 0 0 -44.13 -39.93 13.81 0 30.32 -21.62 0 0 29.13 21.62 0 0 83.46c0,14.11 4.2,25.52 12.91,33.92 8.41,8.41 20.12,12.62 34.83,12.62l19.21 0 0 -34.53 -13.21 0c-9.3,0 -13.81,-4.5 -13.81,-14.41zm176.84 -18.02l0 -22.21c0,-23.42 -5.71,-41.43 -17.72,-53.44 -11.71,-12.31 -27.92,-18.32 -47.73,-18.32 -20.42,0 -36.33,6.01 -48.34,18.02 -11.71,12 -17.41,30.02 -17.41,53.74l0 18.91c0,24.32 6,42.63 18.31,54.34 12.01,11.71 28.22,17.72 48.64,17.72 19.51,0 34.82,-4.81 45.93,-13.81 11.41,-9.31 17.12,-21.92 17.12,-36.93l0 -3 -38.13 0 -0.6 2.1c-0.3,5.4 -2.4,9.3 -6.31,12.01 -3.9,3 -9.61,4.5 -16.51,4.5 -9.31,0 -16.21,-2.4 -21.32,-7.21 -4.8,-4.5 -7.2,-12.31 -7.2,-23.71l0 -2.71 91.27 0zm-65.45 -59.14c17.11,0 25.22,9.31 25.22,28.22l0 2.4 -51.04 0c0,-11.11 2.4,-18.91 6.6,-23.72 4.51,-4.5 10.81,-6.9 19.22,-6.9zm171.13 111.68c11.41,10.81 27.32,16.22 47.44,16.22 19.81,0 35.42,-5.41 46.83,-16.22 11.71,-11.11 17.42,-27.92 17.42,-50.74l0 -29.12c0,-22.51 -5.71,-39.33 -17.42,-50.44 -11.41,-10.8 -27.02,-16.21 -46.83,-16.21 -20.12,0 -36.03,5.41 -47.44,16.21 -11.71,11.11 -17.41,27.93 -17.41,50.44l0 29.12c0,22.82 5.7,39.63 17.41,50.74zm71.75 -79.26l0 28.23c0,21.01 -8.1,31.22 -24.31,31.22 -16.82,0 -24.92,-10.21 -24.92,-31.22l0 -28.23c0,-21.01 8.1,-31.22 24.92,-31.22 16.21,0 24.31,10.21 24.31,31.22zm116.49 -84.96c2.1,-2.1 5.71,-3.3 10.81,-3.3l13.81 0 0 -28.23 -23.12 0c-14.11,0 -25.22,3.61 -33.02,11.41 -7.81,7.51 -11.71,18.32 -11.71,31.83l0 7.8 -16.51 0 0 29.13 16.51 0 0 130 39.93 0 0 -130 27.92 0 0 -29.13 -27.92 0 0 -9.3c0,-4.81 1.2,-8.11 3.3,-10.21zm238.99 178.64l0 -37.53 -90.37 0 87.67 -136.61 0 -36.03 -133.01 0 0 37.23 86.17 0 -87.97 136.61 0 36.33 137.51 0zm119.79 -146.52c-10.81,-9.61 -26.12,-14.41 -46.54,-14.41 -18.01,0 -32.42,4.51 -42.93,13.21 -10.81,8.71 -16.21,20.72 -16.21,35.73l0 2.7 37.53 0 0 -2.4c0,-5.4 1.8,-9.61 5.7,-12.91 3.91,-3.3 9.01,-4.8 15.61,-4.8 15.92,0 23.42,7.5 23.42,23.41l0 10.81 -31.52 0c-17.42,0 -30.63,4.21 -40.23,12.61 -9.91,8.41 -14.71,19.82 -14.71,34.23 0,15.61 4.5,27.92 13.81,36.93 9,8.7 21.91,13.21 38.12,13.21 8.41,0 15.62,-1.2 21.62,-3.61 4.8,-2.1 9.31,-5.4 13.81,-9.6l0 11.41 39.03 0 0 -104.18c0,-18.62 -5.4,-32.73 -16.51,-42.34zm-29.42 108.99c-3.91,4.2 -10.51,6.3 -20.12,6.3 -14.41,0 -21.32,-6 -21.32,-18.01 0,-11.71 7.21,-17.42 21.92,-17.42l25.52 0 0 9.61c0,9.01 -2.1,15.31 -6,19.52zm126.69 -141.11c2.11,-2.1 5.71,-3.3 10.81,-3.3l13.81 0 0 -28.23 -23.11 0c-14.11,0 -25.22,3.61 -33.03,11.41 -7.81,7.51 -11.71,18.32 -11.71,31.83l0 7.8 -16.51 0 0 29.13 16.51 0 0 130 39.93 0 0 -130 27.92 0 0 -29.13 -27.92 0 0 -9.3c0,-4.81 1.2,-8.11 3.3,-10.21zm145.92 32.12c-10.81,-9.61 -26.12,-14.41 -46.54,-14.41 -18.01,0 -32.42,4.51 -42.93,13.21 -10.81,8.71 -16.21,20.72 -16.21,35.73l0 2.7 37.52 0 0 -2.4c0,-5.4 1.81,-9.61 5.71,-12.91 3.9,-3.3 9.01,-4.8 15.61,-4.8 15.91,0 23.42,7.5 23.42,23.41l0 10.81 -31.52 0c-17.42,0 -30.63,4.21 -40.24,12.61 -9.9,8.41 -14.71,19.82 -14.71,34.23 0,15.61 4.51,27.92 13.81,36.93 9.01,8.7 21.92,13.21 38.13,13.21 8.41,0 15.61,-1.2 21.62,-3.61 4.8,-2.1 9.31,-5.4 13.81,-9.6l0 11.41 39.03 0 0 -104.18c0,-18.62 -5.4,-32.73 -16.51,-42.34zm-29.43 108.99c-3.9,4.2 -10.5,6.3 -20.11,6.3 -14.41,0 -21.32,-6 -21.32,-18.01 0,-11.71 7.21,-17.42 21.92,-17.42l25.52 0 0 9.61c0,9.01 -2.1,15.31 -6.01,19.52zm150.12 -124.9c-8.41,0 -15.61,1.8 -22.22,5.1 -5.1,2.71 -9.6,6.01 -13.21,11.11l0 -12.91 -39.33 0 0 159.13 40.23 0 0 -95.18c0,-10.21 2.71,-18.01 7.81,-23.42 5.1,-5.4 12.01,-8.1 20.71,-8.1 5.41,0 12.32,1.2 20.12,3.9l0 -38.13c-4.5,-0.9 -9.31,-1.5 -14.11,-1.5zm245.59 -47.74l-51.64 112.29 -52.24 -112.29 -41.73 0 0 210.17 42.33 0 0 -118.3 37.53 78.36 28.22 0 36.93 -77.46 0 117.4 42.33 0 0 -210.17 -41.73 0zm114.39 0l-40.83 0 0 32.73 40.83 0 0 -32.73zm-0.3 51.04l-39.93 0 0 159.13 39.93 0 0 -159.13zm105.68 -3.3c-8.41,0 -15.61,1.8 -22.22,5.1 -5.1,2.71 -9.61,6.01 -13.21,11.11l0 -12.91 -39.33 0 0 159.13 40.23 0 0 -95.18c0,-10.21 2.7,-18.01 7.81,-23.42 5.1,-5.4 12.01,-8.1 20.71,-8.1 5.41,0 12.31,1.2 20.12,3.9l0 -38.13c-4.5,-0.9 -9.31,-1.5 -14.11,-1.5zm75.06 128.2l67.55 -91.57 0 -33.33 -112.59 0 0 34.23 67.55 0 -67.55 91.57 0 33.33 112.59 0 0 -34.23 -67.55 0zm102.97 19.81c11.41,10.81 27.33,16.22 47.44,16.22 19.82,0 35.43,-5.41 46.84,-16.22 11.71,-11.11 17.41,-27.92 17.41,-50.74l0 -29.12c0,-22.51 -5.7,-39.33 -17.41,-50.44 -11.41,-10.8 -27.02,-16.21 -46.84,-16.21 -20.11,0 -36.03,5.41 -47.44,16.21 -11.7,11.11 -17.41,27.93 -17.41,50.44l0 29.12c0,22.82 5.71,39.63 17.41,50.74zm71.76 -79.26l0 28.23c0,21.01 -8.11,31.22 -24.32,31.22 -16.81,0 -24.92,-10.21 -24.92,-31.22l0 -28.23c0,-21.01 8.11,-31.22 24.92,-31.22 16.21,0 24.32,10.21 24.32,31.22z"/>
    <polygon class="fil2" points="2675.82,2415.78 2648.16,2415.78 2648.16,2484.39 2675.82,2460.87 "/>
   </g>
  </g>
 </g>
</svg>
