<svg width="170" height="40" viewBox="0 0 170 40" fill="none" xmlns="http://www.w3.org/2000/svg">
<rect width="52.1016" height="40" rx="4" fill="#E2B65C"/>
<path d="M21.9688 25.0469V28H9.74609V25.0469H21.9688ZM21.8398 12.9766L11.5391 28H8.82031V25.9141L19.2148 10.9375H21.8398V12.9766ZM20.5742 10.9375V13.9023H8.79688V10.9375H20.5742ZM25.8359 10.9375H29L33.1016 23.1367L37.1914 10.9375H40.3555L34.3789 28H31.8125L25.8359 10.9375ZM24.0078 10.9375H27.2305L27.8281 23.582V28H24.0078V10.9375ZM38.9609 10.9375H42.1953V28H38.3633V23.582L38.9609 10.9375Z" fill="black"/>
<path d="M75.6543 24.2148V26.5H65.5762V24.2148H75.6543ZM75.5078 13.9121L66.875 26.5H64.8145V24.8203L73.5156 12.2812H75.5078V13.9121ZM74.502 12.2812V14.5762H64.8242V12.2812H74.502ZM83.0469 24.1172V19.4102C83.0469 19.0716 82.9915 18.7819 82.8809 18.541C82.7702 18.2936 82.5977 18.1016 82.3633 17.9648C82.1354 17.8281 81.8392 17.7598 81.4746 17.7598C81.1621 17.7598 80.8919 17.8151 80.6641 17.9258C80.4362 18.0299 80.2604 18.1829 80.1367 18.3848C80.013 18.5801 79.9512 18.8112 79.9512 19.0781H77.1387C77.1387 18.6289 77.2428 18.2025 77.4512 17.7988C77.6595 17.3952 77.9622 17.0404 78.3594 16.7344C78.7565 16.4219 79.2285 16.1777 79.7754 16.002C80.3288 15.8262 80.9473 15.7383 81.6309 15.7383C82.4512 15.7383 83.1803 15.875 83.8184 16.1484C84.4564 16.4219 84.9577 16.832 85.3223 17.3789C85.6934 17.9258 85.8789 18.6094 85.8789 19.4297V23.9512C85.8789 24.5306 85.9147 25.0059 85.9863 25.377C86.0579 25.7415 86.1621 26.0605 86.2988 26.334V26.5H83.457C83.3203 26.2135 83.2161 25.8555 83.1445 25.4258C83.0794 24.9896 83.0469 24.5534 83.0469 24.1172ZM83.418 20.0645L83.4375 21.6562H81.8652C81.4941 21.6562 81.1719 21.6986 80.8984 21.7832C80.625 21.8678 80.4004 21.9883 80.2246 22.1445C80.0488 22.2943 79.9186 22.4701 79.834 22.6719C79.7559 22.8737 79.7168 23.0951 79.7168 23.3359C79.7168 23.5768 79.7721 23.7949 79.8828 23.9902C79.9935 24.179 80.153 24.3288 80.3613 24.4395C80.5697 24.5436 80.8138 24.5957 81.0938 24.5957C81.5169 24.5957 81.8848 24.5111 82.1973 24.3418C82.5098 24.1725 82.7507 23.9642 82.9199 23.7168C83.0957 23.4694 83.1868 23.235 83.1934 23.0137L83.9355 24.2051C83.8314 24.472 83.6882 24.7487 83.5059 25.0352C83.3301 25.3216 83.1055 25.5918 82.832 25.8457C82.5586 26.0931 82.2298 26.2982 81.8457 26.4609C81.4616 26.6172 81.0059 26.6953 80.4785 26.6953C79.8079 26.6953 79.1992 26.5618 78.6523 26.2949C78.112 26.0215 77.6823 25.6471 77.3633 25.1719C77.0508 24.6901 76.8945 24.1432 76.8945 23.5312C76.8945 22.9779 76.9987 22.4863 77.207 22.0566C77.4154 21.627 77.7214 21.2656 78.125 20.9727C78.5352 20.6732 79.0462 20.4486 79.6582 20.2988C80.2702 20.1426 80.9798 20.0645 81.7871 20.0645H83.418ZM91.6309 26.5H88.7988V14.9961C88.7988 14.1953 88.9551 13.5215 89.2676 12.9746C89.5866 12.4212 90.0326 12.0046 90.6055 11.7246C91.1849 11.4382 91.8717 11.2949 92.666 11.2949C92.9264 11.2949 93.1771 11.3145 93.418 11.3535C93.6589 11.3861 93.8932 11.4284 94.1211 11.4805L94.0918 13.5996C93.9681 13.5671 93.8379 13.5443 93.7012 13.5312C93.5645 13.5182 93.4049 13.5117 93.2227 13.5117C92.8841 13.5117 92.5944 13.5703 92.3535 13.6875C92.1191 13.7982 91.9401 13.9642 91.8164 14.1855C91.6927 14.4069 91.6309 14.6771 91.6309 14.9961V26.5ZM93.7402 15.9336V17.9258H87.2266V15.9336H93.7402ZM100.918 24.1172V19.4102C100.918 19.0716 100.863 18.7819 100.752 18.541C100.641 18.2936 100.469 18.1016 100.234 17.9648C100.007 17.8281 99.7103 17.7598 99.3457 17.7598C99.0332 17.7598 98.763 17.8151 98.5352 17.9258C98.3073 18.0299 98.1315 18.1829 98.0078 18.3848C97.8841 18.5801 97.8223 18.8112 97.8223 19.0781H95.0098C95.0098 18.6289 95.1139 18.2025 95.3223 17.7988C95.5306 17.3952 95.8333 17.0404 96.2305 16.7344C96.6276 16.4219 97.0996 16.1777 97.6465 16.002C98.1999 15.8262 98.8184 15.7383 99.502 15.7383C100.322 15.7383 101.051 15.875 101.689 16.1484C102.327 16.4219 102.829 16.832 103.193 17.3789C103.564 17.9258 103.75 18.6094 103.75 19.4297V23.9512C103.75 24.5306 103.786 25.0059 103.857 25.377C103.929 25.7415 104.033 26.0605 104.17 26.334V26.5H101.328C101.191 26.2135 101.087 25.8555 101.016 25.4258C100.951 24.9896 100.918 24.5534 100.918 24.1172ZM101.289 20.0645L101.309 21.6562H99.7363C99.3652 21.6562 99.043 21.6986 98.7695 21.7832C98.4961 21.8678 98.2715 21.9883 98.0957 22.1445C97.9199 22.2943 97.7897 22.4701 97.7051 22.6719C97.627 22.8737 97.5879 23.0951 97.5879 23.3359C97.5879 23.5768 97.6432 23.7949 97.7539 23.9902C97.8646 24.179 98.0241 24.3288 98.2324 24.4395C98.4408 24.5436 98.6849 24.5957 98.9648 24.5957C99.388 24.5957 99.7559 24.5111 100.068 24.3418C100.381 24.1725 100.622 23.9642 100.791 23.7168C100.967 23.4694 101.058 23.235 101.064 23.0137L101.807 24.2051C101.702 24.472 101.559 24.7487 101.377 25.0352C101.201 25.3216 100.977 25.5918 100.703 25.8457C100.43 26.0931 100.101 26.2982 99.7168 26.4609C99.3327 26.6172 98.877 26.6953 98.3496 26.6953C97.679 26.6953 97.0703 26.5618 96.5234 26.2949C95.9831 26.0215 95.5534 25.6471 95.2344 25.1719C94.9219 24.6901 94.7656 24.1432 94.7656 23.5312C94.7656 22.9779 94.8698 22.4863 95.0781 22.0566C95.2865 21.627 95.5924 21.2656 95.9961 20.9727C96.4062 20.6732 96.9173 20.4486 97.5293 20.2988C98.1413 20.1426 98.8509 20.0645 99.6582 20.0645H101.289ZM108.73 18.2383V26.5H105.918V15.9336H108.564L108.73 18.2383ZM111.914 15.8652L111.865 18.4727C111.729 18.4531 111.562 18.4368 111.367 18.4238C111.178 18.4043 111.006 18.3945 110.85 18.3945C110.452 18.3945 110.107 18.4466 109.814 18.5508C109.528 18.6484 109.287 18.7949 109.092 18.9902C108.903 19.1855 108.76 19.4232 108.662 19.7031C108.571 19.9831 108.519 20.3021 108.506 20.6602L107.939 20.4844C107.939 19.8008 108.008 19.1725 108.145 18.5996C108.281 18.0202 108.48 17.5156 108.74 17.0859C109.007 16.6562 109.333 16.3242 109.717 16.0898C110.101 15.8555 110.54 15.7383 111.035 15.7383C111.191 15.7383 111.351 15.7513 111.514 15.7773C111.676 15.7969 111.81 15.8262 111.914 15.8652ZM119.736 12.2812H122.217L125.869 22.7207L129.521 12.2812H132.002L126.865 26.5H124.873L119.736 12.2812ZM118.398 12.2812H120.869L121.318 22.457V26.5H118.398V12.2812ZM130.869 12.2812H133.35V26.5H130.42V22.457L130.869 12.2812ZM138.711 15.9336V26.5H135.889V15.9336H138.711ZM135.713 13.1797C135.713 12.7695 135.856 12.431 136.143 12.1641C136.429 11.8971 136.813 11.7637 137.295 11.7637C137.77 11.7637 138.151 11.8971 138.438 12.1641C138.73 12.431 138.877 12.7695 138.877 13.1797C138.877 13.5898 138.73 13.9284 138.438 14.1953C138.151 14.4622 137.77 14.5957 137.295 14.5957C136.813 14.5957 136.429 14.4622 136.143 14.1953C135.856 13.9284 135.713 13.5898 135.713 13.1797ZM143.848 18.2383V26.5H141.035V15.9336H143.682L143.848 18.2383ZM147.031 15.8652L146.982 18.4727C146.846 18.4531 146.68 18.4368 146.484 18.4238C146.296 18.4043 146.123 18.3945 145.967 18.3945C145.57 18.3945 145.225 18.4466 144.932 18.5508C144.645 18.6484 144.404 18.7949 144.209 18.9902C144.02 19.1855 143.877 19.4232 143.779 19.7031C143.688 19.9831 143.636 20.3021 143.623 20.6602L143.057 20.4844C143.057 19.8008 143.125 19.1725 143.262 18.5996C143.398 18.0202 143.597 17.5156 143.857 17.0859C144.124 16.6562 144.45 16.3242 144.834 16.0898C145.218 15.8555 145.658 15.7383 146.152 15.7383C146.309 15.7383 146.468 15.7513 146.631 15.7773C146.794 15.7969 146.927 15.8262 147.031 15.8652ZM156.768 24.3027V26.5H148.74V24.3027H156.768ZM156.611 17.5547L149.873 26.5H147.988V24.8301L154.697 15.9336H156.611V17.5547ZM155.615 15.9336V18.1406H148.145V15.9336H155.615ZM157.93 21.3242V21.1191C157.93 20.3444 158.04 19.6315 158.262 18.9805C158.483 18.3229 158.805 17.7533 159.229 17.2715C159.652 16.7897 160.173 16.4154 160.791 16.1484C161.41 15.875 162.119 15.7383 162.92 15.7383C163.721 15.7383 164.434 15.875 165.059 16.1484C165.684 16.4154 166.208 16.7897 166.631 17.2715C167.061 17.7533 167.386 18.3229 167.607 18.9805C167.829 19.6315 167.939 20.3444 167.939 21.1191V21.3242C167.939 22.0924 167.829 22.8053 167.607 23.4629C167.386 24.1139 167.061 24.6836 166.631 25.1719C166.208 25.6536 165.687 26.028 165.068 26.2949C164.45 26.5618 163.74 26.6953 162.939 26.6953C162.139 26.6953 161.426 26.5618 160.801 26.2949C160.182 26.028 159.658 25.6536 159.229 25.1719C158.805 24.6836 158.483 24.1139 158.262 23.4629C158.04 22.8053 157.93 22.0924 157.93 21.3242ZM160.742 21.1191V21.3242C160.742 21.7669 160.781 22.1803 160.859 22.5645C160.938 22.9486 161.061 23.2871 161.23 23.5801C161.406 23.8665 161.634 24.0911 161.914 24.2539C162.194 24.4167 162.536 24.498 162.939 24.498C163.33 24.498 163.665 24.4167 163.945 24.2539C164.225 24.0911 164.45 23.8665 164.619 23.5801C164.788 23.2871 164.912 22.9486 164.99 22.5645C165.075 22.1803 165.117 21.7669 165.117 21.3242V21.1191C165.117 20.6895 165.075 20.2858 164.99 19.9082C164.912 19.5241 164.785 19.1855 164.609 18.8926C164.44 18.5931 164.215 18.3587 163.936 18.1895C163.656 18.0202 163.317 17.9355 162.92 17.9355C162.523 17.9355 162.184 18.0202 161.904 18.1895C161.631 18.3587 161.406 18.5931 161.23 18.8926C161.061 19.1855 160.938 19.5241 160.859 19.9082C160.781 20.2858 160.742 20.6895 160.742 21.1191Z" fill="#E2B65C"/>
</svg>
