<svg xmlns="http://www.w3.org/2000/svg">
  <symbol id="menu" viewBox="0 0 18 12" fill="none">
    <path d="M1 12h16c.55 0 1-.45 1-1s-.45-1-1-1H1c-.55 0-1 .45-1 1s.45 1 1 1Zm0-5h16c.55 0 1-.45 1-1s-.45-1-1-1H1c-.55 0-1 .45-1 1s.45 1 1 1ZM0 1c0 .55.45 1 1 1h16c.55 0 1-.45 1-1s-.45-1-1-1H1C.45 0 0 .45 0 1Z" fill="currentColor"/>
  </symbol>
  <symbol id="search" viewBox="0 0 30 30">
    <path d="M13 3C7.489 3 3 7.489 3 13s4.489 10 10 10a9.947 9.947 0 0 0 6.322-2.264l5.971 5.971a1 1 0 1 0 1.414-1.414l-5.97-5.97A9.947 9.947 0 0 0 23 13c0-5.511-4.489-10-10-10zm0 2c4.43 0 8 3.57 8 8s-3.57 8-8 8-8-3.57-8-8 3.57-8 8-8z" fill="currentColor" />
  </symbol>
  <symbol id="close" viewBox="0 0 11 10" fill="none">
    <path d="m9.5 1-8 8M1.5 1l8 8" stroke="currentColor" stroke-width="2" stroke-linecap="round" stroke-linejoin="round"/>
  </symbol>
  <symbol id="facebook" viewBox="0 0 16 16" fill="none">
    <path d="M15.416 8.127a7.308 7.308 0 1 0-8.442 7.2v-5.094H5.108V8.127h1.866V6.52c0-1.83 1.086-2.844 2.754-2.844a10.53 10.53 0 0 1 1.626.15v1.8h-.918a1.068 1.068 0 0 0-1.2 1.146V8.14h2.034l-.312 2.088H9.236v5.107a7.285 7.285 0 0 0 6.18-7.2v-.007Z" fill="currentColor"/>
  </symbol>
  <symbol id="instagram" viewBox="0 0 12 12" fill="none">
    <path d="M6 0C4.372 0 4.168.007 3.528.036c-.64.03-1.075.13-1.457.279-.394.153-.73.358-1.063.692A2.945 2.945 0 0 0 .315 2.07c-.149.381-.25.817-.279 1.456C.008 4.166 0 4.37 0 6c0 1.63.007 1.833.036 2.473.03.64.13 1.075.279 1.457.153.394.358.73.692 1.063.333.333.668.539 1.063.692.381.149.817.25 1.456.279.64.029.844.036 2.474.036 1.63 0 1.833-.007 2.473-.036.64-.03 1.076-.13 1.457-.279a2.934 2.934 0 0 0 1.063-.692c.333-.334.538-.669.692-1.063.147-.382.249-.818.279-1.456C11.992 7.834 12 7.63 12 6c0-1.63-.008-1.834-.036-2.474-.03-.639-.132-1.075-.279-1.456a2.946 2.946 0 0 0-.693-1.063A2.933 2.933 0 0 0 9.93.315C9.547.167 9.111.065 8.472.036 7.832.007 7.63 0 6 0H6Zm-.538 1.081h.539c1.602 0 1.791.006 2.424.035.585.027.903.124 1.114.206.28.11.48.24.69.45.21.21.34.41.449.69.082.21.18.528.206 1.113.029.632.035.822.035 2.424 0 1.601-.006 1.791-.035 2.423-.027.585-.124.903-.206 1.114-.11.28-.24.48-.45.69-.21.21-.409.34-.689.448-.211.083-.529.18-1.114.207-.632.029-.822.035-2.424.035-1.603 0-1.792-.006-2.425-.035-.585-.027-.902-.125-1.114-.207a1.858 1.858 0 0 1-.69-.449 1.86 1.86 0 0 1-.45-.69c-.081-.21-.18-.528-.206-1.113-.028-.633-.034-.823-.034-2.425 0-1.602.006-1.791.034-2.424.027-.585.125-.902.207-1.114.109-.28.239-.48.449-.69.21-.21.41-.34.69-.449.211-.082.529-.18 1.114-.206.554-.025.768-.033 1.886-.034v.001Zm3.741.997a.72.72 0 1 0 0 1.44.72.72 0 0 0 0-1.44Zm-3.202.84a3.081 3.081 0 1 0 0 6.164 3.081 3.081 0 0 0 0-6.163ZM6 4a2 2 0 1 1 0 4 2 2 0 0 1 0-4Z" fill="currentColor"/>
  </symbol>
  <symbol id="telegram" viewBox="0 0 16 16" fill="none">
    <path d="M8 .8a7.2 7.2 0 1 0 0 14.4A7.2 7.2 0 0 0 8 .8Zm3.537 4.932-1.179 5.571c-.09.396-.324.486-.657.306l-1.8-1.332-.9.837a.46.46 0 0 1-.36.18l.126-1.8 3.33-3.015c.153-.126 0-.198-.216-.072L5.795 8.972l-1.8-.558c-.387-.117-.396-.387.081-.567l6.939-2.7c.342-.099.63.099.522.585Z" fill="currentColor"/>
  </symbol>
  <symbol id="copy-1" viewBox="0 0 12 12" fill="none">
    <path d="M8.1 1.2h-6V9c0 .33-.27.6-.6.6-.33 0-.6-.27-.6-.6V1.2C.9.54 1.44 0 2.1 0h6c.33 0 .6.27.6.6 0 .33-.27.6-.6.6Zm3 2.4v7.2c0 .66-.54 1.2-1.2 1.2H4.5c-.66 0-1.2-.54-1.2-1.2V3.6c0-.66.54-1.2 1.2-1.2h5.4c.66 0 1.2.54 1.2 1.2Zm-1.2 0H4.5v7.2h5.4V3.6Z" fill="currentColor"/>
  </symbol>
  <symbol id="copy" viewBox="0 0 448 512" fill="none">
    <path fill="currentColor" d="M384 336H192c-8.8 0-16-7.2-16-16V64c0-8.8 7.2-16 16-16h140.1l67.9 67.9V320c0 8.8-7.2 16-16 16Zm-192 48h192c35.3 0 64-28.7 64-64V115.9c0-12.7-5.1-24.9-14.1-33.9l-67.8-67.9c-9-9-21.2-14.1-33.9-14.1H192c-35.3 0-64 28.7-64 64v256c0 35.3 28.7 64 64 64ZM64 128c-35.3 0-64 28.7-64 64v256c0 35.3 28.7 64 64 64h192c35.3 0 64-28.7 64-64v-32h-48v32c0 8.8-7.2 16-16 16H64c-8.8 0-16-7.2-16-16V192c0-8.8 7.2-16 16-16h32v-48H64Z"/>
  </symbol>
  <symbol id="copied" viewBox="0 0 448 512" fill="none">
    <path d="M208 0H332.1C344.8 0 357 5.1 366 14.1L433.9 82C442.9 91 448 103.2 448 115.9V336C448 362.5 426.5 384 400 384H208C181.5 384 160 362.5 160 336V48C160 21.5 181.5 0 208 0ZM48 128H128V192H64V448H256V416H320V464C320 490.5 298.5 512 272 512H48C21.5 512 0 490.5 0 464V176C0 149.5 21.5 128 48 128Z" fill="currentColor"/>
  </symbol>
  <symbol id="share" viewBox="0 0 16 18" fill="none">
    <path d="M13 12.433c-.633 0-1.2.25-1.633.642L5.425 9.617c.042-.192.075-.384.075-.584 0-.2-.033-.391-.075-.583L11.3 5.025A2.49 2.49 0 0 0 13 5.7c1.383 0 2.5-1.117 2.5-2.5S14.383.7 13 .7a2.497 2.497 0 0 0-2.5 2.5c0 .2.033.392.075.583L4.7 7.208A2.49 2.49 0 0 0 3 6.533a2.497 2.497 0 0 0-2.5 2.5c0 1.384 1.117 2.5 2.5 2.5.658 0 1.25-.258 1.7-.675l5.933 3.467a2.354 2.354 0 0 0-.066.542A2.436 2.436 0 0 0 13 17.3a2.436 2.436 0 0 0 2.433-2.433A2.436 2.436 0 0 0 13 12.433Zm0-10.066c.458 0 .833.375.833.833a.836.836 0 0 1-.833.833.836.836 0 0 1-.833-.833c0-.458.375-.833.833-.833Zm-10 7.5a.836.836 0 0 1-.833-.834c0-.458.375-.833.833-.833.458 0 .833.375.833.833A.836.836 0 0 1 3 9.867Zm10 5.85a.836.836 0 0 1-.833-.834c0-.458.375-.833.833-.833.458 0 .833.375.833.833a.836.836 0 0 1-.833.834Z" fill="currentColor"/>
  </symbol>
  <symbol id="triangle" viewBox="0 0 6 10" fill="none">
    <path d="m.5 10 5-5-5-5v10Z" fill="currentColor"/>
  </symbol>
  <symbol id="arrow" viewBox="0 0 9 12" fill="none">
    <path d="M.84 1.41 5.42 6 .84 10.59 2.25 12l6-6-6-6L.84 1.41Z" fill="currentColor"/>
  </symbol>
  <symbol id="twitter" viewBox="0 0 24 24">
    <path fill="currentColor" d="M18.244 2.25h3.308l-7.227 8.26 8.502 11.24H16.17l-5.214-6.817L4.99 21.75H1.68l7.73-8.835L1.254 2.25H8.08l4.713 6.231zm-1.161 17.52h1.833L7.084 4.126H5.117z"/>
  </symbol>
  <symbol id="user" fill="none" viewBox="0 0 17 18">
    <path d="M15.17 16.5c0-2.3-2.99-4.17-6.67-4.17-3.68 0-6.67 1.87-6.67 4.17M8.5 9.83a4.17 4.17 0 1 1 0-8.33 4.17 4.17 0 0 1 0 8.33Z" stroke="currentColor" stroke-width="2" stroke-linecap="round" stroke-linejoin="round"/>
  </symbol>
  <symbol id="favorite" fill="none" viewBox="0 0 15 18">
    <path d="M12.5 0h-10a2 2 0 0 0-2 2v16l7-3 7 3V2a2 2 0 0 0-2-2Zm0 15-5-2.18-5 2.18V3a1 1 0 0 1 1-1h8a1 1 0 0 1 1 1v12Z" fill="currentColor"/>
  </symbol>
  <symbol id="bookmark" viewBox="0 0 384 512">
    <path d="M0 48V487.7C0 501.1 10.9 512 24.3 512c5 0 9.9-1.5 14-4.4L192 400 345.7 507.6c4.1 2.9 9 4.4 14 4.4c13.4 0 24.3-10.9 24.3-24.3V48c0-26.5-21.5-48-48-48H48C21.5 0 0 21.5 0 48z"/>
  </symbol>
  <symbol id="bookmark-empty" viewBox="0 0 384 512">
    <path fill="currentColor" d="M0 48C0 21.5 21.5 0 48 0l0 48V441.4l130.1-92.9c8.3-6 19.6-6 27.9 0L336 441.4V48H48V0H336c26.5 0 48 21.5 48 48V488c0 9-5 17.2-13 21.3s-17.6 3.4-24.9-1.8L192 397.5 37.9 507.5c-7.3 5.2-16.9 5.9-24.9 1.8S0 497 0 488V48z"/>
  </symbol>
  <symbol id="profile-settings" fill="none" viewBox="0 0 21 20">
    <path d="M14.5 13.62a1.12 1.12 0 1 0 0-2.24 1.12 1.12 0 0 0 0 2.24Z" fill="currentColor"/>
    <path fill-rule="evenodd" clip-rule="evenodd" d="M14.5 14.5c-.73 0-2.19.36-2.24 1.08a2.74 2.74 0 0 0 4.48 0c-.05-.72-1.51-1.08-2.24-1.08Z" fill="currentColor"/>
    <path fill-rule="evenodd" clip-rule="evenodd" d="M15.5 8.09V3.27L8 0 .5 3.27v4.91C.5 12.72 3.7 16.97 8 18a9.17 9.17 0 0 0 1.6-.55 6 6 0 1 0 5.9-9.36ZM8.5 14c0 .56.08 1.11.23 1.62-.24.11-.48.22-.73.3a8.2 8.2 0 0 1-5.5-7.74v-3.6L8 2.18l5.5 2.4v3.51a6 6 0 0 0-5 5.91Zm6 4a4 4 0 1 1 0-8 4 4 0 0 1 0 8Z" fill="currentColor"/>
  </symbol>
  <symbol id="camera" fill="none" viewBox="0 0 14 12">
    <path d="M7 8.67a2 2 0 1 0 0-4 2 2 0 0 0 0 4Z" fill="currentColor"/>
    <path d="M12.33 1.33h-2.11l-.83-.9C9.15.16 8.8 0 8.41 0H5.6c-.38 0-.74.16-.99.43l-.82.9H1.67c-.74 0-1.34.6-1.34 1.34v8c0 .73.6 1.33 1.34 1.33h10.66c.74 0 1.34-.6 1.34-1.33v-8c0-.74-.6-1.34-1.34-1.34ZM7 10a3.33 3.33 0 1 1 0-6.67A3.33 3.33 0 0 1 7 10Z" fill="currentColor"/>
  </symbol>
  <symbol id="back" fill="none" viewBox="0 0 18 12">
    <path d="M18 5H3.83l3.58-3.59L6 0 0 6l6 6 1.41-1.41L3.83 7H18V5Z" fill="currentColor"/>
  </symbol>
  <symbol id="to-favorite" viewBox="0 0 19 14">
    <path d="m16.3 4.95-2.34-2.8a4.32 4.32 0 0 0-.75-.79 2 2 0 0 0-.63-.3C12.33 1 12.05 1 11.5 1H4.2c-1.12 0-1.68 0-2.1.22a2 2 0 0 0-.88.87C1 2.52 1 3.08 1 4.2v5.6c0 1.12 0 1.68.22 2.1.19.38.5.7.87.88.43.22.99.22 2.1.22h7.31c.55 0 .83 0 1.08-.07a2 2 0 0 0 .63-.3c.22-.15.4-.36.75-.78l2.33-2.8c.61-.73.91-1.1 1.03-1.5a2 2 0 0 0 0-1.1c-.12-.4-.42-.77-1.03-1.5Z" stroke="currentColor" stroke-width="2" stroke-linecap="round" stroke-linejoin="round"/>
  </symbol>
  <symbol id="folder-star" fill="none" viewBox="0 0 20 17">
    <path d="M18 2.5h-8L8.59 1.09A2 2 0 0 0 7.17.5H2a2 2 0 0 0-2 2v12c0 1.1.9 2 2 2h16a2 2 0 0 0 2-2v-10a2 2 0 0 0-2-2Zm-3.06 10.41L13 11.78l-1.94 1.13a.5.5 0 0 1-.74-.55l.51-2.2L9.14 8.7c-.33-.29-.16-.84.28-.88l2.23-.19.88-2.06a.5.5 0 0 1 .92 0l.88 2.06 2.23.19a.5.5 0 0 1 .28.88l-1.69 1.46.51 2.2a.49.49 0 0 1-.72.55Z" fill="#E2B65C"/>
  </symbol>
  <symbol id="more" viewBox="0 0 24 24" fill="none" stroke="currentColor" stroke-width="2" stroke-linecap="round" stroke-linejoin="round">
    <circle cx="12" cy="12" r="1"/>
    <circle cx="19" cy="12" r="1"/>
    <circle cx="5" cy="12" r="1"/>
  </symbol>
  <symbol id="folder" fill="none" viewBox="0 0 20 16">
    <path d="M18 2h-8L8.59.59A2 2 0 0 0 7.17 0H2a2 2 0 0 0-2 2v12c0 1.1.9 2 2 2h16a2 2 0 0 0 2-2V4a2 2 0 0 0-2-2Z" fill="currentColor"/>
  </symbol>
  <symbol id="check" fill="none" stroke="currentColor" stroke-width="3" stroke-linecap="round" stroke-linejoin="round" viewBox="0 0 24 24">
    <path d="M20 6 9 17l-5-5"/>
  </symbol>
  <symbol id="naming" viewBox="0 0 20 15" fill="none">
    <path fill="currentColor" d="M6.5 1.5C6.5 2.33 7.17 3 8 3h3.5v10.5c0 .83.67 1.5 1.5 1.5s1.5-.67 1.5-1.5V3H18c.83 0 1.5-.67 1.5-1.5S18.83 0 18 0H8c-.83 0-1.5.67-1.5 1.5ZM2 8h1.5v5.5c0 .83.67 1.5 1.5 1.5s1.5-.67 1.5-1.5V8H8c.83 0 1.5-.67 1.5-1.5S8.83 5 8 5H2C1.17 5 .5 5.67.5 6.5S1.17 8 2 8Z"/>
  </symbol>
  <symbol id="plus" viewBox="0 0 448 512">
    <path fill="currentColor" d="M256 80c0-17.7-14.3-32-32-32s-32 14.3-32 32V224H48c-17.7 0-32 14.3-32 32s14.3 32 32 32H192V432c0 17.7 14.3 32 32 32s32-14.3 32-32V288H400c17.7 0 32-14.3 32-32s-14.3-32-32-32H256V80z" />
  </symbol>
  <symbol id="cancel" viewBox="0 0 384 512">
    <path fill="currentColor" d="M342.6 150.6c12.5-12.5 12.5-32.8 0-45.3s-32.8-12.5-45.3 0L192 210.7 86.6 105.4c-12.5-12.5-32.8-12.5-45.3 0s-12.5 32.8 0 45.3L146.7 256 41.4 361.4c-12.5 12.5-12.5 32.8 0 45.3s32.8 12.5 45.3 0L192 301.3 297.4 406.6c12.5 12.5 32.8 12.5 45.3 0s12.5-32.8 0-45.3L237.3 256 342.6 150.6z"/>
  </symbol>
  <symbol id="rename" viewBox="0 0 512 512">
    <path fill="currentColor" d="M441 58.9L453.1 71c9.4 9.4 9.4 24.6 0 33.9L424 134.1 377.9 88 407 58.9c9.4-9.4 24.6-9.4 33.9 0zM209.8 256.2L344 121.9 390.1 168 255.8 302.2c-2.9 2.9-6.5 5-10.4 6.1l-58.5 16.7 16.7-58.5c1.1-3.9 3.2-7.5 6.1-10.4zM373.1 25L175.8 222.2c-8.7 8.7-15 19.4-18.3 31.1l-28.6 100c-2.4 8.4-.1 17.4 6.1 23.6s15.2 8.5 23.6 6.1l100-28.6c11.8-3.4 22.5-9.7 31.1-18.3L487 138.9c28.1-28.1 28.1-73.7 0-101.8L474.9 25C446.8-3.1 401.2-3.1 373.1 25zM88 64C39.4 64 0 103.4 0 152V424c0 48.6 39.4 88 88 88H360c48.6 0 88-39.4 88-88V312c0-13.3-10.7-24-24-24s-24 10.7-24 24V424c0 22.1-17.9 40-40 40H88c-22.1 0-40-17.9-40-40V152c0-22.1 17.9-40 40-40H200c13.3 0 24-10.7 24-24s-10.7-24-24-24H88z"/>
  </symbol>
  <symbol  viewBox="0 0 14 19" fill="none">
    <path fill="currentColor" d="M9.12 7.97 7 10.09 4.87 7.97 3.46 9.38l2.13 2.12-2.12 2.12 1.41 1.41L7 12.91l2.12 2.12 1.41-1.41-2.12-2.12 2.12-2.12-1.41-1.41ZM10.5 1.5l-1-1h-5l-1 1H0v2h14v-2h-3.5ZM1 16.5c0 1.1.9 2 2 2h8c1.1 0 2-.9 2-2v-12H1v12Zm2-10h8v10H3v-10Z"/>
  </symbol>
  <symbol id="delete" viewBox="0 0 448 512">
    <path fill="currentColor" d="M170.5 51.6L151.5 80h145l-19-28.4c-1.5-2.2-4-3.6-6.7-3.6H177.1c-2.7 0-5.2 1.3-6.7 3.6zm147-26.6L354.2 80H368h48 8c13.3 0 24 10.7 24 24s-10.7 24-24 24h-8V432c0 44.2-35.8 80-80 80H112c-44.2 0-80-35.8-80-80V128H24c-13.3 0-24-10.7-24-24S10.7 80 24 80h8H80 93.8l36.7-55.1C140.9 9.4 158.4 0 177.1 0h93.7c18.7 0 36.2 9.4 46.6 24.9zM80 128V432c0 17.7 14.3 32 32 32H336c17.7 0 32-14.3 32-32V128H80zm80 64V400c0 8.8-7.2 16-16 16s-16-7.2-16-16V192c0-8.8 7.2-16 16-16s16 7.2 16 16zm80 0V400c0 8.8-7.2 16-16 16s-16-7.2-16-16V192c0-8.8 7.2-16 16-16s16 7.2 16 16zm80 0V400c0 8.8-7.2 16-16 16s-16-7.2-16-16V192c0-8.8 7.2-16 16-16s16 7.2 16 16z"/>
  </symbol>
  <symbol id="unchecked" viewBox="0 0 448 512">
    <path fill="currentColor" d="M384 80c8.8 0 16 7.2 16 16V416c0 8.8-7.2 16-16 16H64c-8.8 0-16-7.2-16-16V96c0-8.8 7.2-16 16-16H384zM64 32C28.7 32 0 60.7 0 96V416c0 35.3 28.7 64 64 64H384c35.3 0 64-28.7 64-64V96c0-35.3-28.7-64-64-64H64z"/>
  </symbol>
  <symbol id="checked" viewBox="0 0 448 512">
    <path fill="#66bb6a" d="M64 32C28.7 32 0 60.7 0 96V416c0 35.3 28.7 64 64 64H384c35.3 0 64-28.7 64-64V96c0-35.3-28.7-64-64-64H64zM337 209L209 337c-9.4 9.4-24.6 9.4-33.9 0l-64-64c-9.4-9.4-9.4-24.6 0-33.9s24.6-9.4 33.9 0l47 47L303 175c9.4-9.4 24.6-9.4 33.9 0s9.4 24.6 0 33.9z"/>
  </symbol>
</svg>
